HIERARCHY
ROOT Hips
{
  OFFSET 3.13124 94.3669 -3.18751
  CHANNELS  6 Xposition Yposition Zposition Zrotation Xrotation Yrotation
  JOINT LeftUpLeg
  {
    OFFSET 8.64259 1.95398 -2.38835
    CHANNELS 3 Zrotation Xrotation Yrotation
    JOINT LeftLeg
    {
      OFFSET 43.7702 0 0
      CHANNELS 3 Zrotation Xrotation Yrotation
      JOINT LeftFoot
      {
        OFFSET 40.6238 0 0
        CHANNELS 3 Zrotation Xrotation Yrotation
        JOINT LeftToeBase
        {
          OFFSET 12.7242 0 0
          CHANNELS 3 Zrotation Xrotation Yrotation
          End Site
          {
            OFFSET 0 0 0
          }
        }
      }
    }
  }
  JOINT RightUpLeg
  {
    OFFSET -8.2249 1.95398 -2.59336
    CHANNELS 3 Zrotation Xrotation Yrotation
    JOINT RightLeg
    {
      OFFSET 43.5653 0 0
      CHANNELS 3 Zrotation Xrotation Yrotation
      JOINT RightFoot
      {
        OFFSET 40.6238 0 0
        CHANNELS 3 Zrotation Xrotation Yrotation
        JOINT RightToeBase
        {
          OFFSET 12.7242 0 0
          CHANNELS 3 Zrotation Xrotation Yrotation
          End Site
          {
            OFFSET 0 0 0
          }
        }
      }
    }
  }
  JOINT Spine
  {
    OFFSET 0.165834 0.87714 6.61349
    CHANNELS 3 Zrotation Xrotation Yrotation
    JOINT Spine1
    {
      OFFSET 7.38962 1.71661e-005 0
      CHANNELS 3 Zrotation Xrotation Yrotation
      JOINT Spine2
      {
        OFFSET 11.9445 1.14441e-005 0
        CHANNELS 3 Zrotation Xrotation Yrotation
        JOINT Spine3
        {
          OFFSET 14.7254 4.19617e-005 0
          CHANNELS 3 Zrotation Xrotation Yrotation
          JOINT Spine4
          {
            OFFSET 10.9679 0 0
            CHANNELS 3 Zrotation Xrotation Yrotation
            JOINT RightShoulder
            {
              OFFSET 2.46616 -1.6653 3.69651
              CHANNELS 3 Zrotation Xrotation Yrotation
              JOINT RightArm
              {
                OFFSET 13.0012 0 0
                CHANNELS 3 Zrotation Xrotation Yrotation
                JOINT RightForeArm
                {
                  OFFSET 28.7848 1.52588e-005 0
                  CHANNELS 3 Zrotation Xrotation Yrotation
                  JOINT RightHand
                  {
                    OFFSET 26.5688 1.52588e-005 0
                    CHANNELS 3 Zrotation Xrotation Yrotation
                    End Site
                    {
                      OFFSET 0 0 0
                    }
                  }
                }
              }
            }
            JOINT LeftShoulder
            {
              OFFSET 2.38034 -1.29275 -3.75231
              CHANNELS 3 Zrotation Xrotation Yrotation
              JOINT LeftArm
              {
                OFFSET 16.3182 6.10352e-005 0
                CHANNELS 3 Zrotation Xrotation Yrotation
                JOINT LeftForeArm
                {
                  OFFSET 27.0901 0 0
                  CHANNELS 3 Zrotation Xrotation Yrotation
                  JOINT LeftHand
                  {
                    OFFSET 24.5451 1.52588e-005 0
                    CHANNELS 3 Zrotation Xrotation Yrotation
                    End Site
                    {
                      OFFSET 0 0 0
                    }
                  }
                }
              }
            }
            JOINT Neck
            {
              OFFSET 5.0226 -0.0266342 0
              CHANNELS 3 Zrotation Xrotation Yrotation
              JOINT Head
              {
                OFFSET 6.69363 2.86102e-005 0
                CHANNELS 3 Zrotation Xrotation Yrotation
                End Site
                {
                  OFFSET 0 0 0
                }
              }
            }
          }
        }
      }
    }
  }
}
MOTION
Frames:	9
Frame Time:	0.0333333
67.6921 84.0682 -79.7009 -36.5745 -44.1246 -46.457 -169.266 74.3314 76.396 -53.5192 -12.2535 -0.139197 71.4159 7.80234 3.97012 28.7808 5.57721e-006 2.94402e-006 175.694 75.9208 95.1872 -50.6067 -22.8292 -1.70428 70.7708 -3.73835 -1.90461 28.7808 1.38713e-005 2.01435e-005 4.18667 10.7653 -92.9915 5.43839 6.68133 -5.6392 -6.22892 6.4271 -5.92765 -28.8599 8.06523 -3.36509 -8.8472 8.06521 -3.36512 59.1114 -48.4665 -146.04 -23.307 31.5391 -3.2459 -2.80263 11.1456 -5.01723 16.3231 -6.67686 -47.8329 -143.479 -16.4546 -18.3271 -10.966 -36.1033 -2.23501 9.07308 -2.21545 -100.128 -33.728 5.14057 -22.8418 -80.5453 0.178355 -21.1391 64.8741 -15.0761 -1.39099 
67.3844 84.0672 -79.4496 -36.9889 -44.3667 -46.9205 -169.699 73.9282 76.9123 -53.9717 -12.1724 -0.124819 71.6066 7.18881 3.6614 28.7808 5.57721e-006 2.94402e-006 175.711 75.5184 95.1922 -51.0794 -22.9142 -1.71772 70.9603 -4.19373 -2.12462 28.7808 1.38713e-005 2.01435e-005 3.98053 10.7476 -92.8293 5.46175 6.34163 -5.31076 -6.20573 6.10213 -5.58458 -28.828 7.64284 -3.15461 -8.81537 7.64283 -3.15463 53.6751 -50.8894 -151.419 -25.908 32.2376 -2.65409 -2.88135 9.35462 -4.99078 17.5696 -6.85604 -45.9142 -147.621 -17.4099 -21.3969 -6.47775 -39.0006 -5.16306 11.9937 -0.484323 -86.7869 -31.9605 6.2537 -28.08 -83.194 3.23534 -22.8275 66.024 -12.9573 0.306798 
67.1158 84.2138 -79.3369 -37.1823 -44.5693 -47.2673 -170.087 73.4206 77.2956 -53.7757 -12.2439 -0.134324 71.5361 6.54081 3.34999 28.7808 5.57721e-006 2.94402e-006 175.843 75.0373 95.0623 -51.0194 -22.8751 -1.7144 70.9421 -4.71186 -2.38007 28.7808 1.38713e-005 2.01435e-005 3.76334 10.7115 -92.6556 5.52306 5.99079 -4.97195 -6.14461 5.76647 -5.23069 -28.7584 7.20668 -2.93753 -8.74571 7.20667 -2.93757 48.9773 -52.4087 -156.159 -27.6091 32.8083 -2.55029 -2.93278 8.15899 -4.97682 19.2949 -6.7347 -42.0164 -151.181 -18.4681 -23.6891 -0.728624 -40.0242 -8.92601 13.4717 4.21309 -68.6346 -27.8916 7.29276 -36.2011 -85.4323 5.51013 -23.5948 66.4374 -11.2287 1.52886 
66.9085 84.5259 -79.3303 -37.0575 -44.5013 -47.2218 -170.673 73.0627 77.9438 -52.9511 -12.1968 -0.149535 71.0114 6.34779 3.27585 28.7808 5.57721e-006 2.94402e-006 175.612 74.4565 95.481 -49.8899 -20.5084 -1.5561 71.606 -4.37884 -2.20637 28.7808 1.38713e-005 2.01435e-005 3.55901 10.6324 -92.4804 5.67328 5.67541 -4.65332 -5.99454 5.46536 -4.89855 -28.6012 6.81035 -2.72896 -8.58856 6.81035 -2.72899 45.0239 -53.4132 -160.156 -28.4186 33.3881 -3.23129 -2.90816 8.72391 -4.9858 22.0499 -6.504 -36.6088 -154.113 -19.4003 -25.4566 4.84196 -39.7496 -12.1332 13.0836 9.09012 -51.1401 -22.5456 7.28289 -43.7821 -87.6285 6.67197 -23.688 66.854 -10.2542 2.46649 
66.7535 84.9634 -79.4309 -36.8793 -44.5481 -47.0556 -171.315 72.4818 78.6012 -51.6434 -11.9467 -0.160122 70.2285 6.813 3.54176 28.7808 5.57721e-006 2.94402e-006 175.733 73.9356 95.4416 -48.7962 -22.5039 -1.6562 69.6118 -5.33526 -2.73042 28.7808 1.38713e-005 2.01435e-005 3.36446 10.5523 -92.3339 5.82403 5.33871 -4.36362 -5.8441 5.1417 -4.59431 -28.4428 6.40238 -2.55442 -8.43011 6.40236 -2.55442 41.9929 -53.9846 -163.259 -28.1271 33.7447 -4.30777 -2.92482 8.33579 -4.98138 21.1125 -5.5243 -33.1696 -156.39 -20.2064 -26.7267 8.84483 -37.2216 -16.4309 7.93033 9.83565 -31.6744 -13.556 4.16821 -46.5882 -89.6351 7.28382 -23.1562 67.1447 -9.38963 3.20227 
66.6441 85.4503 -79.6131 -36.8999 -44.8529 -47.0601 -171.998 71.4469 79.1603 -49.9086 -11.9653 -0.197258 69.4589 7.4169 3.88479 28.7808 5.57721e-006 2.94402e-006 176.106 73.0138 95.0674 -47.3116 -22.3574 -1.62171 68.6473 -5.01035 -2.6011 28.7808 1.38713e-005 2.01435e-005 3.14507 10.5026 -92.1882 5.9159 4.98002 -4.08955 -5.75267 4.79539 -4.30473 -28.3427 5.97807 -2.4014 -8.33007 5.97806 -2.40144 39.7096 -54.0941 -165.769 -27.5779 33.9123 -5.20906 -3.08099 4.65962 -4.94412 17.635 -4.25209 -30.9412 -158.016 -21.0124 -27.4335 16.5838 -33.8333 -23.016 2.50616 11.5627 -3.56298 -12.5574 5.30767 -59.6284 -91.4916 7.3517 -22.163 67.3023 -9.0147 3.39721 
66.5627 86.0078 -79.8729 -37.1264 -45.2182 -47.1956 -172.848 70.1724 79.9462 -47.8834 -12.0579 -0.242705 68.5538 7.94019 4.20486 28.7808 5.57721e-006 2.94402e-006 176.458 71.7329 94.7715 -45.3918 -22.2048 -1.58206 67.7147 -4.92006 -2.58278 28.7808 1.38713e-005 2.01435e-005 2.93464 10.4706 -92.0504 5.9726 4.63451 -3.82408 -5.69633 4.46183 -4.02427 -28.2787 5.56899 -2.25289 -8.26608 5.56897 -2.25292 38.2668 -53.8756 -167.506 -26.3954 33.95 -6.37162 -3.2847 -0.235218 -4.90943 12.7973 -2.75066 -27.8712 -159.297 -21.9114 -27.7819 21.9467 -34.3486 -16.5154 2.67743 17.6779 -3.73095 -15.5406 6.88716 -60.0915 -93.0373 7.01515 -20.806 66.7636 -8.84962 3.1976 
66.481 86.6118 -80.1941 -37.501 -45.676 -47.3675 -173.865 68.7557 81.0235 -45.7718 -11.7681 -0.264855 67.4822 8.07612 4.34094 28.7808 5.57721e-006 2.94402e-006 176.745 70.2171 94.6001 -43.1923 -22.0532 -1.53981 66.4876 -4.65548 -2.47767 28.7808 1.38713e-005 2.01435e-005 2.74492 10.4542 -91.9349 6.00107 4.30032 -3.59898 -5.66825 4.13801 -3.78549 -28.244 5.18162 -2.13343 -8.2313 5.1816 -2.13346 38.2906 -53.1236 -168.02 -23.783 33.5252 -7.86038 -3.50582 -5.6044 -4.89153 4.22739 -0.801657 -23.3522 -160.035 -22.8285 -27.6748 24.6547 -33.7754 -12.0953 2.7156 19.0093 -3.77042 -16.3469 6.98583 -58.0236 -94.3273 6.00461 -19.0302 66.353 -9.36525 2.29757 
66.369 87.2307 -80.572 -37.7638 -46.6145 -47.3999 -174.638 66.9279 81.6277 -43.3701 -11.2092 -0.27348 66.3978 8.73182 4.76382 28.7808 5.57721e-006 2.94402e-006 177.316 68.4198 93.9525 -40.948 -21.7127 -1.48722 65.292 -4.39439 -2.36778 28.7808 1.38713e-005 2.01435e-005 2.58132 10.4432 -91.9895 6.01837 3.99665 -3.71757 -5.65237 3.82929 -3.88983 -28.2161 4.92867 -2.34372 -8.2034 4.92866 -2.34374 41.0561 -51.3705 -166.125 -21.4536 32.5283 -7.71183 -3.78006 -12.2095 -4.8981 -1.99222 0.159961 -20.2217 -160.423 -23.5288 -27.4489 24.4725 -32.8077 -9.81972 2.72537 19.3425 -3.78047 -16.6596 6.59958 -54.3727 -94.8469 3.85976 -17.1981 65.302 -10.5175 1.5929 
